<?xml version="1.0" standalone="no"?>
<!DOCTYPE svg PUBLIC "-//W3C//DTD SVG 20010904//EN"
 "http://www.w3.org/TR/2001/REC-SVG-20010904/DTD/svg10.dtd">
<svg version="1.0" xmlns="http://www.w3.org/2000/svg"
 width="132.000000pt" height="132.000000pt" viewBox="0 0 132.000000 132.000000"
 preserveAspectRatio="xMidYMid meet">
<metadata>
Created by potrace 1.14, written by Peter Selinger 2001-2017
</metadata>
<g transform="translate(0.000000,132.000000) scale(0.100000,-0.100000)"
fill="#000000" stroke="none">
<path d="M503 1234 c-112 -54 -173 -149 -189 -299 -9 -77 -9 -78 -28 -113 -10
-19 -20 -44 -22 -55 -21 -94 -18 -118 20 -158 22 -24 25 -34 22 -100 -1 -41
-8 -84 -14 -95 -6 -12 -21 -51 -33 -88 -12 -36 -25 -66 -28 -66 -4 0 -7 -9 -8
-20 -3 -40 -35 -89 -69 -105 -19 -9 -39 -13 -44 -10 -6 4 -10 -19 -10 -60 l0
-65 383 2 c297 2 382 6 383 16 1 6 2 16 3 21 0 6 9 9 19 9 28 -2 95 13 124 28
54 28 62 60 62 259 1 155 4 185 19 214 23 41 24 122 3 152 -13 19 -12 27 7 80
l21 58 -37 53 c-20 30 -41 76 -47 106 -13 60 -66 154 -110 194 -49 45 -146 69
-270 67 -90 -1 -114 -5 -157 -25z"/>
</g>
</svg>
